# Blender 4.4.1
# www.blender.org
mtllib attackEffect.mtl
o 平面
v 0.000000 1.000000 1.800000
v 0.000000 1.000000 -0.200000
v 0.000000 -1.000000 1.800000
v 0.000000 -1.000000 -0.200000
vn -1.0000 -0.0000 -0.0000
vt 0.000000 0.000000
vt 1.000000 0.000000
vt 1.000000 1.000000
vt 0.000000 1.000000
s 1
usemtl マテリアル.004
f 1/1/1 2/2/1 4/3/1 3/4/1
o 平面.001
v 0.000000 -1.000000 1.800000
v 0.000000 -1.000000 -0.200000
v 0.000000 1.000000 1.800000
v 0.000000 1.000000 -0.200000
vn 1.0000 -0.0000 -0.0000
vt 0.000000 0.000000
vt 1.000000 0.000000
vt 1.000000 1.000000
vt 0.000000 1.000000
s 1
usemtl マテリアル.005
f 5/5/2 6/6/2 8/7/2 7/8/2
